<?xml version="1.0" encoding="UTF-8"?>
<svg xmlns="http://www.w3.org/2000/svg" version="1.1" viewBox="0 0 1000 475.7">
  <defs>
    <style>
      .cls-1 {
        fill: #c00;
      }
    </style>
  </defs>
  <!-- Generator: Adobe Illustrator 28.7.1, SVG Export Plug-In . SVG Version: 1.2.0 Build 142)  -->
  <g>
    <g id="Layer_1">
      <path class="cls-1" d="M418.8,0c-44.4-.7-83.7,35.2-83.7,87.1v233.7c0,8.4-6.2,15.9-15.4,15.9h-73c-158.1.2-143.9-202.1-9.4-202.3,59.8,0,80.7,0,80.7,0v-56.7h-83.6c-52.4,0-92,20-118.7,49.8-26.7,29.7-40.3,69.3-40.3,108.7,0,37.9,12.9,77.2,39.9,107,27,29.8,68,50.2,124.8,50.2h137.9c8,0,14.7-6.8,14.7-14.6V93.3c0-14.9,7.7-26.9,20.1-30.9h0c12.1-3.8,25.3,1.2,33.3,12.5h0c0,0,0,.1,0,.1,19.4,31.8,67.8,109.6,111.5,179.8,21.9,35.1,42.6,68.3,57.9,92.8,7.7,12.3,14,22.4,18.4,29.5,4.4,7.1,6.9,11,7.1,11.4,3.2,4.6,7.3,6.3,10.7,5.2h0c1.9-.6,3.4-1.9,4.6-4.2s1.8-5.3,1.8-9V93.3c0-14.9,7.6-26.9,20.1-30.9,12-3.8,25.3,1.2,33.2,12.5h0s0,0,0,0c19.4,31.7,67.9,109.6,111.6,179.8,43.7,70.2,82.8,132.8,83.4,133.7,0,0,0,0,0,0,3.2,4.5,7.5,6.3,11.1,5.2,2-.6,3.5-2,4.7-4.2s1.9-5.3,1.9-9V1.8h0s-57.2,0-57.2,0v221.3s-35.4-60-95.8-163.7c-59.1-101.5-170.5-59.6-170.6,27.8v135.8s-34.6-60.1-94.9-163.7C481.8,18,449.2.5,418.8,0ZM244.7,1.8c-328.6,0-325.5,468.1,4.4,468.3h128.9c55.5,0,91.1-32.9,91-93.5v-118.6s72.3,119.9,100.7,166.8c48.3,79.8,165.1,64.1,164.8-35.6v-131.1s72.3,119.8,100.7,166.8c48.3,79.7,165.1,64,164.8-35.6V1.8h-57.1v378.9h0c0,17.9-10,27.9-19.6,30.9h0c-11.7,3.7-24.4-1.3-32.2-12.6h0s0,0,0,0c-1.6-2.6-156.4-250.4-195-313.7-3.2-4.6-7.9-6.4-12.1-5.1-4.3,1.4-7.1,6-7.1,13.1v287.3h0c0,18-9.8,28-19.3,31h0s0,0,0,0c-11.5,3.6-24-1.4-31.8-12.6h0s0,0,0,0c-.3-.5-2.8-4.5-7.3-11.6-4.5-7.1-10.8-17.3-18.5-29.6-15.4-24.6-36.1-57.8-57.9-92.9-43.7-70.2-92-147.9-111.4-179.6-3.2-4.6-7.9-6.4-12.1-5.1h0c-4.4,1.4-7.2,6-7.1,13.1h0v285.6c0,18.3-15,33.3-33.4,33.3h-137.9c-62.7,0-108.7-22.8-138.8-56.2s-44.5-77.3-44.5-119.7c0-43.9,15.2-88.1,45-121.4,29.9-33.3,74.4-55.6,132.6-55.7h83.6V1.8h-73.3Z"/>
    </g>
  </g>
</svg>